<?xml version="1.0" encoding="UTF-8" standalone="no"?>
<svg
   width="500.00003"
   height="200"
   viewBox="0 0 3063.6002 460.827"
   version="1.1"
   id="svg4"
   sodipodi:docname="logo-readme.svg"
   xmlns:inkscape="http://www.inkscape.org/namespaces/inkscape"
   xmlns:sodipodi="http://sodipodi.sourceforge.net/DTD/sodipodi-0.dtd"
   xmlns="http://www.w3.org/2000/svg"
   xmlns:svg="http://www.w3.org/2000/svg">
  <defs
     id="defs4" />
  <sodipodi:namedview
     id="namedview4"
     pagecolor="#ffffff"
     bordercolor="#000000"
     borderopacity="0.25"
     inkscape:showpageshadow="2"
     inkscape:pageopacity="0.0"
     inkscape:pagecheckerboard="0"
     inkscape:deskcolor="#d1d1d1" />
  <path
     d="m 1995.5434,521.13877 v -786.5492 h 132.8433 v 786.56372 h -132.8433 z m 201.6334,0 v -786.5492 h 132.8118 V 521.15329 H 2197.1768 Z M 2399.235,230.91919 c 0,-47.4076 12.9995,-93.56774 39.0141,-138.175557 25.7944,-44.41927 62.8414,-78.71297 110.7788,-102.6778863 47.8904,-23.9504117 101.6194,-35.8603657 161.1871,-35.8603657 90.3825,0 165.09,26.764671 223.871,80.453712 58.7808,53.68901 88.069,121.043277 88.069,202.367387 0,81.68686 -29.477,149.72292 -88.4625,204.29683 -58.7652,54.39985 -133.0794,81.6723 -222.5176,81.6723 -54.8936,0 -107.4579,-11.18462 -157.8977,-33.75695 -50.4398,-22.55775 -88.6515,-55.61836 -114.8392,-99.16723 -26.1877,-43.54895 -39.203,-96.71569 -39.203,-159.15224 z m 128.0275,2.37908 c 0,-32.68338 7.6485,-64.53991 22.9614,-95.29396 15.203,-30.63803 37.047,-54.298307 65.2492,-70.821407 28.2338,-16.53749 59.8668,-24.73371 94.9622,-24.73371 53.2412,0 97.2127,18.45238 131.8359,55.50235 34.6077,37.035387 51.8562,83.485557 51.8562,139.597207 0,56.34376 -17.3744,103.25814 -52.1079,140.91735 -34.6076,37.51412 -78.3588,56.32926 -131.0492,56.32926 -32.3255,0 -63.2817,-7.703 -92.995,-23.26868 -29.6972,-15.5511 -52.2023,-38.37002 -67.6254,-68.41324 -15.4389,-30.04317 -23.0874,-66.73045 -23.0874,-109.81517 z M 816.29039,220.80812 c 0,67.81844 16.9497,117.79382 50.39263,150.15807 33.67898,32.36428 74.61312,48.45214 122.83394,48.45214 121.70084,0 165.42054,-92.94401 165.42054,-190.6606 0,-62.78469 -19.3103,-109.48152 -50.8174,-140.279067 -31.4916,-30.81209 -70.726,-46.29064 -118.23861,-46.29064 -48.70868,0 -89.1549,15.10143 -121.38608,45.13012 -31.97927,30.028717 -48.20502,74.593067 -48.20502,133.489977 z M 681.24391,-39.919433 h 131.99333 l 0.56659,55.647416 c 69.52979,-58.490719 140.63347,-65.976188 203.39597,-63.466532 174.045,6.919661 264.0654,127.962952 266.2531,296.979679 0.8182,64.56896 -26.5655,140.88828 -87.1091,194.27264 -91.3896,80.58434 -244.72361,113.03564 -382.09933,7.13733 V 687.92142 H 681.25964 V -39.919433 Z M 489.25787,252.70816 c -23.82714,2.69823 -63.21895,4.14894 -118.3959,4.39555 -55.41293,-0.0292 -92.00348,3.7137 -109.73998,11.05401 -27.93469,11.72139 -44.75849,29.70959 -50.12505,53.77606 -5.36662,24.081 -5.17781,52.49946 10.67028,73.83869 34.54456,46.55182 127.85422,42.64954 176.62586,22.57234 49.58996,-21.62933 84.55949,-78.62593 88.17917,-127.90491 z m -254.84306,-150.89791 -134.0235,1.34912 c 13.47157,-67.484817 40.47771,-83.978847 77.68202,-108.0598753 40.163,-26.0248457 104.3262,-33.8293867 170.99175,-35.6137457 72.91346,-1.958329 152.48406,5.933227 203.23859,39.57406871 C 578.88492,16.685433 594.89034,43.812793 603.64055,75.031003 639.57007,203.58876 608.70816,423.88634 620.08659,510.12825 H 489.9346 l -1.71542,-49.64165 c -76.29713,49.87375 -193.43393,74.27386 -296.56412,42.31575 -32.68748,-10.11108 -71.92194,-35.94738 -93.388387,-70.18304 -17.799511,-28.3604 -20.868442,-63.80014 -20.490664,-89.01259 0.424868,-29.10029 7.36529,-54.90763 22.269011,-77.72655 20.55365,-31.52288 53.8864,-55.09609 92.7589,-68.70333 30.24821,-10.57533 64.84001,-13.81032 93.18389,-18.69907 69.04191,-11.89542 174.43831,-0.27559 200.98805,-11.03954 v -13.56367 c 0,-26.31505 -0.25178,-64.699537 -20.36475,-85.487547 -34.67049,-35.80238 -164.66513,-29.76762 -204.84395,-9.54538 -23.35488,11.77939 -23.29197,32.61093 -27.35235,42.968617 z"
     fill="#cc2229"
     id="path3"
     style="stroke-width:15.1096" />
  <path
     d="m 1257.7885,615.71106 c -1167.266532,-1851.19886 -1167.266532,-1851.19886 0,0 z m 89.4336,-353.26484 c 0,48.19514 12.0369,95.18126 36.0346,140.55026 23.8307,45.1877 58.059,80.05332 102.3508,104.41534 44.2462,24.37711 93.9266,36.48265 148.9345,36.48265 83.5139,0 152.5169,-27.2336 206.8267,-81.83656 54.3098,-54.61815 81.3736,-123.11002 81.3736,-205.83822 0,-83.07583 -27.2459,-152.29311 -81.7379,-207.802991 -54.3098,-55.3283686 -122.9637,-83.090897 -205.5668,-83.090897 -50.7428,0 -99.2846,11.395215 -145.8837,34.33658408 C 1442.955,22.618935 1407.649,56.245191 1383.454,100.54126 c -24.195,44.29607 -36.2319,98.38529 -36.2319,161.90496 z"
     fill="#db812e"
     id="path2"
     sodipodi:nodetypes="sssccscscscss"
     style="stroke-width:15.1458" />
  <g
     id="g6"
     transform="matrix(18.310073,0,0,16.428761,-215.48061,-1377.6312)">
    <g
       id="g16"
       transform="matrix(0.05158175,0,0,0.05023285,90.951744,86.436661)">&#10;	<g
   id="g15">&#10;		<g
   id="g4">&#10;			<g
   id="g3">&#10;				<path
   style="fill:#241f1c"
   d="M 403.383,332.812 V 444.401 C 403.383,481.767 313.11,512 201.691,512 131.12,512 68.957,499.856 32.949,481.427 14.436,472.001 2.886,460.961 0.509,448.987 0.169,447.458 0,445.93 0,444.401 V 332.812 c 0,-0.34 0,-0.679 0.084,-1.018 -0.084,-0.17 -0.084,-0.255 0,-0.34 0,-0.595 0.085,-1.189 0.17,-1.783 0.085,-0.255 0.085,-0.51 0.17,-0.765 0.085,-0.68 0.254,-1.358 0.51,-2.038 v -0.085 c 0.34,-1.358 0.849,-2.633 1.444,-3.991 11.21,-24.373 61.23,-44.499 128.318,-52.907 8.747,-1.105 17.834,-2.038 27.09,-2.718 h 0.51 c 14.012,-1.104 28.535,-1.613 43.396,-1.613 14.861,0 29.383,0.509 43.395,1.613 h 0.509 c 9.256,0.68 18.343,1.613 27.09,2.718 67.089,8.407 117.108,28.534 128.318,52.907 0.595,1.358 1.104,2.633 1.444,3.991 v 0.085 c 0.255,0.68 0.424,1.358 0.509,2.038 0.17,0.849 0.255,1.613 0.34,2.548 v 0.34 c 0.086,0.339 0.086,0.678 0.086,1.018 z"
   id="path1-2" />
&#10;				<path
   style="opacity:0.1;fill:#e8e8e9"
   d="m 403.383,333.152 v 5.35 c 0,37.366 -90.273,67.683 -201.692,67.683 C 90.272,406.185 0,375.868 0,338.502 v -5.35 c 0,0.849 0.084,1.613 0.169,2.378 2.633,26.326 50.274,48.916 117.958,59.191 2.378,0.34 4.671,0.68 7.049,1.019 3.821,0.594 7.643,1.104 11.549,1.529 1.614,0.085 3.312,0.255 5.01,0.509 9.427,1.019 19.193,1.784 29.213,2.293 6.709,0.339 13.503,0.594 20.382,0.679 3.397,0.085 6.879,0.085 10.361,0.085 3.482,0 6.963,0 10.36,-0.085 6.879,-0.085 13.672,-0.34 20.382,-0.679 10.021,-0.509 19.787,-1.274 29.213,-2.293 1.698,-0.254 3.397,-0.424 5.01,-0.509 3.907,-0.425 7.728,-0.935 11.549,-1.529 2.378,-0.339 4.671,-0.679 7.049,-1.019 67.684,-10.275 115.325,-32.865 117.958,-59.191 0.086,-0.765 0.171,-1.529 0.171,-2.378 z"
   id="path2-2" />
&#10;				<path
   style="fill:#cc2229;fill-opacity:1"
   d="m 403.383,332.472 v 0.68 c 0,0.849 -0.085,1.613 -0.17,2.378 -3.567,26.411 -50.954,48.746 -117.958,59.191 -2.378,0.34 -4.671,0.68 -7.049,1.019 -2.378,0.34 -4.756,0.594 -7.133,0.934 -1.444,0.17 -2.973,0.34 -4.416,0.595 -1.613,0.085 -3.312,0.255 -5.01,0.509 -6.285,0.594 -12.738,1.189 -19.278,1.614 -3.312,0.255 -6.624,0.509 -9.936,0.679 -6.709,0.255 -13.503,0.509 -20.382,0.679 -3.397,0.085 -6.879,0.085 -10.36,0.085 -3.482,0 -6.964,0 -10.361,-0.085 -6.879,-0.17 -13.672,-0.424 -20.382,-0.679 -3.312,-0.17 -6.624,-0.424 -9.936,-0.679 -6.539,-0.425 -12.993,-1.02 -19.278,-1.614 -1.698,-0.254 -3.397,-0.424 -5.01,-0.509 -1.443,-0.255 -2.972,-0.425 -4.416,-0.595 -2.378,-0.34 -4.756,-0.594 -7.133,-0.934 -2.378,-0.339 -4.671,-0.679 -7.049,-1.019 C 51.123,384.276 3.736,361.941 0.169,335.53 0.084,334.765 0,334.001 0,333.152 v -0.68 c 0,-0.254 0,-0.424 0.084,-0.678 -0.084,-0.17 -0.084,-0.255 0,-0.34 0.085,-0.935 0.17,-1.699 0.34,-2.548 0.085,-0.425 0.169,-0.849 0.169,-1.274 -0.084,-0.169 0,-0.339 0.085,-0.509 0,-0.17 0,-0.425 0.085,-0.68 0.17,-0.509 0.255,-1.103 0.51,-1.613 0.255,-0.765 0.595,-1.613 0.934,-2.463 10.531,-24.203 58.512,-44.245 123.308,-53.162 7.728,-1.103 15.711,-2.038 23.948,-2.717 0.085,-0.085 0.255,-0.085 0.34,-0.085 16.56,-1.529 33.969,-2.293 51.888,-2.293 17.919,0 35.328,0.764 51.888,2.293 0.085,0 0.255,0 0.34,0.085 8.238,0.679 16.221,1.614 23.948,2.717 64.796,8.917 112.778,28.959 123.308,53.162 0.594,1.359 1.104,2.718 1.444,4.076 0.17,0.85 0.17,1.614 0.339,2.463 0.17,0.849 0.255,1.613 0.34,2.548 v 0.34 c 0,0.169 0.085,0.424 0.085,0.678 z"
   id="path3-7" />
&#10;			</g>
&#10;			<path
   style="fill:#cc2229;fill-opacity:1"
   d="m 336.696,426.451 v 31.189 c -16.248,4.913 -34.889,8.949 -55.283,11.888 v -31.189 c 20.395,-2.939 39.035,-6.975 55.283,-11.888 z"
   id="path4-3" />
&#10;		</g>
&#10;		<path
   style="opacity:0.3;fill:#040000"
   d="m 402.619,326.443 c -0.085,0.17 -0.085,0.255 -0.17,0.34 v 0.085 c -9.511,34.309 -95.708,61.144 -200.757,61.144 -105.05,0 -191.246,-26.835 -200.758,-61.144 v -0.085 c -0.085,-0.085 -0.085,-0.17 -0.085,-0.255 l -0.085,-0.085 c 0.17,-0.509 0.255,-1.103 0.51,-1.613 0.255,-0.765 0.595,-1.613 0.934,-2.463 10.531,-24.203 58.512,-44.245 123.308,-53.162 7.728,-1.103 15.711,-2.038 23.948,-2.717 0.085,-0.085 0.255,-0.085 0.34,-0.085 16.56,-1.529 33.969,-2.293 51.888,-2.293 17.919,0 35.328,0.764 51.888,2.293 0.085,0 0.255,0 0.34,0.085 8.238,0.679 16.221,1.614 23.948,2.717 64.796,8.917 112.778,28.959 123.308,53.162 0.594,1.359 1.103,2.718 1.443,4.076 z"
   id="path5-7" />
&#10;		<g
   id="g9">&#10;			<g
   id="g8">&#10;				<path
   style="fill:#241f1c"
   d="m 403.383,200.842 v 111.505 c 0,3.396 -0.765,6.793 -2.208,10.02 -0.085,0.17 -0.17,0.34 -0.17,0.425 -15.031,32.44 -98.51,57.153 -199.314,57.153 -100.804,0 -184.283,-24.713 -199.314,-57.153 0,-0.085 -0.085,-0.255 -0.17,-0.425 -0.34,-0.849 -0.679,-1.698 -0.934,-2.463 -0.255,-0.848 -0.51,-1.613 -0.68,-2.462 0,0 0,-0.085 0,-0.17 -0.254,-0.679 -0.34,-1.444 -0.425,-2.208 C 0.084,314.129 0,313.28 0,312.346 V 200.758 c 0,-1.954 0.34,-3.992 0.849,-5.86 0.085,-0.17 0.085,-0.34 0.17,-0.425 0.34,-1.273 0.849,-2.547 1.359,-3.736 11.295,-24.373 61.399,-44.499 128.403,-52.907 8.747,-1.104 17.749,-2.038 27.005,-2.718 14.098,-1.018 28.789,-1.613 43.906,-1.613 15.116,0 29.807,0.595 43.905,1.613 9.256,0.68 18.258,1.614 27.005,2.718 67.004,8.407 117.108,28.534 128.403,52.907 0.51,1.189 1.019,2.463 1.359,3.736 0.085,0.085 0.085,0.255 0.17,0.425 0.509,1.952 0.849,3.906 0.849,5.944 z"
   id="path6" />
&#10;				<path
   style="opacity:0.1;fill:#e8e8e9"
   d="m 403.383,201.182 v 5.351 c 0,28.278 -51.888,52.482 -125.516,62.672 -1.699,0.17 -3.482,0.425 -5.18,0.68 -22.08,2.717 -46.029,4.246 -70.995,4.246 -24.967,0 -48.916,-1.529 -70.996,-4.246 -1.699,-0.255 -3.482,-0.51 -5.18,-0.68 C 51.888,259.015 0,234.811 0,206.533 v -5.351 c 0,0.765 0.084,1.614 0.169,2.378 2.718,26.921 52.652,49.935 122.969,59.871 0.679,0.085 1.358,0.17 2.038,0.255 5.435,0.848 10.87,1.443 16.56,2.038 2.548,0.255 5.096,0.509 7.728,0.764 2.718,0.254 5.52,0.509 8.322,0.679 h 0.51 c 10.7,0.85 21.74,1.359 33.035,1.529 3.397,0.084 6.879,0.084 10.361,0.084 3.482,0 6.963,0 10.36,-0.084 11.295,-0.17 22.335,-0.679 33.035,-1.529 h 0.509 c 2.803,-0.17 5.605,-0.425 8.322,-0.679 2.633,-0.255 5.18,-0.509 7.728,-0.764 5.69,-0.595 11.125,-1.19 16.56,-2.038 l 2.039,-0.255 c 70.316,-9.936 120.25,-32.95 122.968,-59.871 0.085,-0.764 0.17,-1.613 0.17,-2.378 z"
   id="path7" />
&#10;				<path
   style="fill:#cc2229;fill-opacity:1"
   d="m 403.383,200.418 v 0.764 c 0,0.765 -0.085,1.614 -0.17,2.378 -3.652,26.921 -53.332,49.765 -122.968,59.871 l -2.039,0.255 c -2.378,0.339 -4.756,0.594 -7.133,0.933 -3.142,0.34 -6.2,0.68 -9.426,1.105 -2.633,0.255 -5.35,0.509 -8.068,0.679 -2.803,0.254 -5.605,0.509 -8.492,0.764 -0.934,0 -1.784,0.085 -2.718,0.17 -3.312,0.255 -6.624,0.425 -9.936,0.595 -6.709,0.339 -13.503,0.594 -20.382,0.764 H 191.33 c -6.879,-0.17 -13.672,-0.425 -20.382,-0.764 -3.312,-0.17 -6.624,-0.34 -9.936,-0.595 -0.934,-0.085 -1.783,-0.17 -2.718,-0.17 -2.887,-0.255 -5.69,-0.51 -8.492,-0.764 -2.718,-0.17 -5.435,-0.424 -8.068,-0.679 -3.227,-0.425 -6.284,-0.765 -9.426,-1.105 -2.378,-0.339 -4.756,-0.594 -7.133,-0.933 -0.679,-0.085 -1.359,-0.17 -2.038,-0.255 C 53.501,253.324 3.821,230.481 0.169,203.56 0.084,202.796 0,201.947 0,201.182 v -0.764 c 0,-0.849 0.084,-1.699 0.169,-2.547 0.085,-0.85 0.17,-1.699 0.425,-2.548 0,-0.255 0.085,-0.595 0.17,-0.85 h 401.855 c 0.185,0.708 0.159,1.442 0.277,2.153 0.208,1.034 0.343,2.082 0.404,3.142 0.006,0.219 0.083,0.427 0.083,0.65 z"
   id="path8" />
&#10;			</g>
&#10;			<path
   style="fill:#cc2229;fill-opacity:1"
   d="M 336.696,294.411 V 325.6 c -16.248,4.913 -34.889,8.949 -55.283,11.888 v -31.189 c 20.395,-2.94 39.035,-6.975 55.283,-11.888 z"
   id="path9" />
&#10;		</g>
&#10;		<path
   style="opacity:0.3;fill:#040000"
   d="m 402.534,194.472 v 0.425 c -9.766,34.309 -95.878,61.144 -200.842,61.144 -104.965,0 -191.076,-26.835 -200.843,-61.144 v -0.425 z"
   id="path10" />
&#10;		<g
   id="g14">&#10;			<g
   id="g13">&#10;				<path
   style="fill:#241f1c"
   d="m 403.383,68.787 v 111.504 c 0,3.566 -0.85,7.049 -2.378,10.445 -0.594,1.274 -1.274,2.463 -2.038,3.736 -19.363,30.573 -100.294,53.502 -197.275,53.502 -96.982,0 -177.913,-22.929 -197.276,-53.502 -0.764,-1.273 -1.444,-2.462 -2.038,-3.736 0,-0.085 -0.085,-0.255 -0.17,-0.425 -0.34,-0.763 -0.679,-1.613 -0.934,-2.462 C 1.019,187.17 0.849,186.49 0.679,185.811 0.594,185.556 0.51,185.217 0.51,184.962 0.34,184.282 0.255,183.688 0.17,183.009 0.084,182.074 0,181.225 0,180.291 V 68.702 C 0.679,31.506 90.698,1.528 201.692,1.528 c 68.617,0 129.252,11.465 165.684,29.044 21.231,10.191 34.309,22.505 35.838,35.838 0.084,0.763 0.169,1.613 0.169,2.377 z"
   id="path11" />
&#10;				<path
   style="opacity:0.1;fill:#e8e8e9"
   d="m 403.383,69.127 v 5.35 c 0,28.958 -54.351,53.671 -130.781,63.352 -22.08,2.718 -45.943,4.246 -70.91,4.246 -24.967,0 -48.831,-1.528 -70.911,-4.246 C 54.35,128.148 0,103.435 0,74.478 v -5.35 c 0,30.402 59.616,56.049 141.736,64.541 5.266,0.51 10.615,1.019 16.05,1.443 14.098,1.02 28.789,1.614 43.906,1.614 15.116,0 29.807,-0.594 43.905,-1.614 5.435,-0.424 10.785,-0.933 16.051,-1.443 82.119,-8.493 141.735,-34.14 141.735,-64.542 z"
   id="path12" />
&#10;				<path
   style="fill:#cc2229;fill-opacity:1"
   d="m 403.383,68.363 v 0.424 c -0.51,30.487 -59.956,56.219 -141.736,64.881 -5.266,0.51 -10.615,1.019 -16.051,1.443 -14.097,1.02 -28.789,1.614 -43.905,1.614 -15.117,0 -29.808,-0.594 -43.906,-1.614 C 152.35,134.687 147,134.178 141.735,133.668 59.956,125.006 0.51,99.274 0,68.787 V 68.363 C 0,30.657 90.272,0 201.692,0 c 67.259,0 126.79,11.21 163.476,28.364 22.929,10.7 36.941,23.863 38.045,38.046 0.17,0.594 0.17,1.273 0.17,1.953 z"
   id="path13" />
&#10;			</g>
&#10;			<path
   style="fill:#cc2229;fill-opacity:1"
   d="m 336.696,162.37 v 31.189 c -16.248,4.913 -34.889,8.949 -55.283,11.888 v -31.189 c 20.395,-2.939 39.035,-6.975 55.283,-11.888 z"
   id="path14" />
&#10;		</g>
&#10;	</g>
&#10;	<path
   style="opacity:0.2;fill:#a02c2c;fill-opacity:1"
   d="M 0.51,448.987 C 0.169,447.458 0,445.93 0,444.401 V 332.472 c 0,-0.254 0,-0.424 0.084,-0.678 -0.084,-0.17 -0.084,-0.255 0,-0.34 0,-0.595 0.085,-1.189 0.17,-1.783 0,-0.68 0.085,-1.36 0.34,-2.039 -0.084,-0.169 0,-0.339 0.085,-0.509 0,-0.255 0,-0.425 0.17,-0.595 0.085,-0.594 0.254,-1.103 0.425,-1.698 0.255,-0.765 0.595,-1.613 0.934,-2.463 -0.34,-0.849 -0.679,-1.698 -0.934,-2.463 -0.255,-0.848 -0.51,-1.613 -0.68,-2.462 v -0.17 C 0.34,316.593 0.254,315.828 0.169,315.064 0.084,314.129 0,313.28 0,312.346 V 200.418 c 0,-0.849 0.084,-1.699 0.169,-2.547 0.085,-0.85 0.17,-1.699 0.425,-2.548 0,-0.255 0.085,-0.51 0.255,-0.85 0.254,-1.358 0.764,-2.801 1.359,-4.161 C 1.868,189.549 1.529,188.699 1.274,187.85 1.019,187.171 0.849,186.491 0.679,185.812 0.594,185.557 0.51,185.218 0.51,184.963 0.34,184.283 0.255,183.689 0.17,183.01 0.084,182.074 -0.43010715,179.46802 0,180.291 Z"
   id="path15"
   sodipodi:nodetypes="cssccccccccccccsssccccccccc" />
&#10;</g>
  </g>
</svg>
